HIERARCHY
ROOT Hips
{
  OFFSET -35.4901 99.2528 17.4586
  CHANNELS 6 Xposition Yposition Zposition Zrotation Xrotation Yrotation
  JOINT LeftUpLeg
  {
    OFFSET 8.64259 1.95398 -2.38835
    CHANNELS 3 Zrotation Xrotation Yrotation
    JOINT LeftLeg
    {
      OFFSET 43.7702 0 0
      CHANNELS 3 Zrotation Xrotation Yrotation
      JOINT LeftFoot
      {
        OFFSET 40.6238 0 0
        CHANNELS 3 Zrotation Xrotation Yrotation
        JOINT LeftToeBase
        {
          OFFSET 12.7242 0 0
          CHANNELS 3 Zrotation Xrotation Yrotation
          End Site
          {
            OFFSET 0 0 0
          }
        }
      }
    }
  }
  JOINT RightUpLeg
  {
    OFFSET -8.2249 1.95398 -2.59336
    CHANNELS 3 Zrotation Xrotation Yrotation
    JOINT RightLeg
    {
      OFFSET 43.5653 0 0
      CHANNELS 3 Zrotation Xrotation Yrotation
      JOINT RightFoot
      {
        OFFSET 40.6238 0 0
        CHANNELS 3 Zrotation Xrotation Yrotation
        JOINT RightToeBase
        {
          OFFSET 12.7242 0 0
          CHANNELS 3 Zrotation Xrotation Yrotation
          End Site
          {
            OFFSET 0 0 0
          }
        }
      }
    }
  }
  JOINT Spine
  {
    OFFSET 0.165834 0.87714 6.61349
    CHANNELS 3 Zrotation Xrotation Yrotation
    JOINT Spine1
    {
      OFFSET 7.38963 1.71661e-005 0
      CHANNELS 3 Zrotation Xrotation Yrotation
      JOINT Spine2
      {
        OFFSET 11.9445 1.14441e-005 0
        CHANNELS 3 Zrotation Xrotation Yrotation
        JOINT Spine3
        {
          OFFSET 14.7254 4.19617e-005 0
          CHANNELS 3 Zrotation Xrotation Yrotation
          JOINT Spine4
          {
            OFFSET 10.9679 0 0
            CHANNELS 3 Zrotation Xrotation Yrotation
            JOINT RightShoulder
            {
              OFFSET 2.46616 -1.6653 3.69651
              CHANNELS 3 Zrotation Xrotation Yrotation
              JOINT RightArm
              {
                OFFSET 13.0012 0 0
                CHANNELS 3 Zrotation Xrotation Yrotation
                JOINT RightForeArm
                {
                  OFFSET 28.7848 1.52588e-005 0
                  CHANNELS 3 Zrotation Xrotation Yrotation
                  JOINT RightHand
                  {
                    OFFSET 26.5688 1.52588e-005 0
                    CHANNELS 3 Zrotation Xrotation Yrotation
                    End Site
                    {
                      OFFSET 0 0 0
                    }
                  }
                }
              }
            }
            JOINT LeftShoulder
            {
              OFFSET 2.38034 -1.29275 -3.7523
              CHANNELS 3 Zrotation Xrotation Yrotation
              JOINT LeftArm
              {
                OFFSET 16.3182 6.10351e-005 0
                CHANNELS 3 Zrotation Xrotation Yrotation
                JOINT LeftForeArm
                {
                  OFFSET 27.0901 0 0
                  CHANNELS 3 Zrotation Xrotation Yrotation
                  JOINT LeftHand
                  {
                    OFFSET 24.5451 1.52588e-005 0
                    CHANNELS 3 Zrotation Xrotation Yrotation
                    End Site
                    {
                      OFFSET 0 0 0
                    }
                  }
                }
              }
            }
            JOINT Neck
            {
              OFFSET 5.0226 -0.0266342 0
              CHANNELS 3 Zrotation Xrotation Yrotation
              JOINT Head
              {
                OFFSET 6.69364 2.86102e-005 0
                CHANNELS 3 Zrotation Xrotation Yrotation
                End Site
                {
                  OFFSET 0 0 0
                }
              }
            }
          }
        }
      }
    }
  }
}
MOTION
Frames:	18
Frame Time:	0.0416667
-321.521 82.9546 -278.013 85.955 4.68778 94.8469 -170.999 13.1098 112.37 -63.8656 47.7167 14.3659 97.4166 16.4141 -1.49983 32.6206 5.03237 -9.53063 165.263 54.7973 79.7202 -104.351 -16.4714 -0.239159 93.9309 -24.7988 -16.536 6.63096 7.06753 -9.32288 -4.65971 4.9079 -89.6816 17.2143 -9.01135 2.2504 5.57214 -8.90353 2.6477 -17.2166 -9.26753 -0.585454 2.79601 -9.26754 -0.585465 112.608 3.30256 -37.982 146.664 -44.859 150.997 -37.2351 -31.7574 -39.9368 1.11194 -4.3061 -65.0779 -50.8702 -54.4762 135.263 76.7644 54.2073 -95.6365 -82.7507 35.8235 -106.35 -54.631 -4.24842 4.09524 -11.8545 26.6965 8.82548 105.173 26.942 4.19847 
-317.924 86.9931 -275.198 84.7226 -2.66877 96.0636 -164.58 5.17393 114.624 -43.8326 48.1501 8.66348 86.2251 11.6035 1.42921 41.9739 3.7437 -9.92428 169.878 48.006 88.9832 -99.3828 -9.28469 0.0455609 94.4277 -23.4569 -16.2566 9.06354 6.97531 -9.89192 -3.98412 4.87086 -90.4044 17.2077 -8.05336 0.614456 5.56155 -8.0185 0.970598 -17.1687 -7.86328 -1.84984 2.84396 -7.86326 -1.84984 110.631 6.00081 -42.0962 129.276 -51.3281 138.146 -50.7514 -43.7169 -50.5963 2.42088 -6.41009 -68.8606 -52.6115 -53.6568 133.189 65.1996 36.3128 -89.8955 13.449 -34.0825 -125.43 0.648229 2.33833 -67.3475 -13.7221 27.6154 11.4173 100.325 26.9933 3.72817 
-313.808 88.0075 -271.901 83.6391 -13.6275 95.7847 -160.347 -4.03824 114.939 -28.0196 40.5616 2.56066 77.0664 7.71432 2.33789 51.949 2.89627 -11.6848 174.946 45.3524 95.1482 -99.6417 -1.44435 -0.581169 96.919 -20.2829 -10.6629 11.9697 5.27307 -7.7236 -2.99248 4.97523 -91.28 16.9138 -6.55318 -1.4511 5.25897 -6.61065 -1.16009 -17.3799 -5.81325 -3.35918 2.63273 -5.81324 -3.35919 108.838 8.96289 -46.0129 106.338 -55.872 119.429 -59.5679 -45.1447 -60.6903 6.75948 -9.4187 -67.9507 -55.1093 -52.3434 130.169 54.1318 21.3237 -89.0589 29.6986 -39.7519 -114.648 13.2416 -3.03857 -20.024 -14.2164 25.7058 19.5518 92.2774 20.1062 -0.0157486 
-308.738 88.2106 -268.458 81.2386 -25.3471 93.8256 -161.178 -15.1362 110.346 -14.9647 28.838 -0.11946 64.2648 2.60898 4.81176 59.9427 1.47167 -11.0232 -174.101 52.1487 92.609 -97.0873 4.43317 -1.6721 95.6125 -16.124 -2.73509 11.6056 0.0408382 1.6972 -1.96357 4.99199 -92.1453 16.8153 -4.96847 -3.4799 5.1498 -5.11675 -3.25768 -17.395 -3.6941 -4.81151 2.61764 -3.6941 -4.81151 106.735 13.6938 -49.9127 87.8077 -55.477 103.167 -70.1135 -45.105 -71.0287 16.5317 -16.4991 -72.7512 -59.4061 -47.2723 125.493 43.2035 14.2874 -91.0597 26.3627 -33.9962 -114.078 11.1892 -2.26517 -22.5332 -10.3653 21.3898 33.7659 74.9127 5.12627 -13.3131 
-302.758 88.9058 -264.523 76.3027 -34.9544 90.0412 -168.763 -21.5926 100.641 -8.43991 13.3027 1.2278 53.753 -1.44836 2.96562 46.5267 3.15603 -10.1325 -162.318 60.0011 86.2766 -87.6818 0.322109 -3.57093 92.2962 -15.2337 -2.05305 11.1201 -0.882427 3.43718 -1.15549 4.72952 -92.7394 17.3148 -3.68893 -4.88439 5.64057 -3.90011 -4.71766 -16.8373 -2.05326 -5.76464 3.17538 -2.05326 -5.76463 104.729 19.0343 -54.6569 80.8978 -51.3971 96.6923 -44.4759 -28.5234 -58.7537 84.5192 -50.3208 -56.2584 -68.3734 -25.6761 116.676 19.3432 18.7466 -95.6371 29.4897 -27.5114 -107.965 10.9109 -2.28516 -23.0532 1.55849 20.7919 44.0242 36.9382 0.0601418 -35.0253 
-296.383 90.0041 -259.661 71.9267 -40.3055 88.7359 -173.448 -23.0696 95.7087 -7.30364 5.7415 3.81499 50.2656 -3.27118 1.63746 19.3402 0.840523 -0.234606 -160.96 63.5486 87.9232 -75.1692 -7.06725 -4.92764 87.7941 -14.3795 -4.48511 11.4434 -1.29639 4.16867 -0.788982 4.59664 -93.4232 17.5503 -3.3269 -6.33125 5.86891 -3.60182 -6.17943 -16.5504 -1.27567 -7.03482 3.4623 -1.27568 -7.03483 103.213 24.0219 -60.0146 81.2143 -45.6831 95.5803 90.727 41.598 -112.048 104.604 65.748 44.5752 -76.8775 0.207607 98.8406 -17.6663 23.1376 -85.4021 38.3724 -19.2838 -101.451 10.0546 -2.02617 -22.0545 19.7668 26.269 44.2921 -7.66373 13.38 -40.0656 
-289.898 90.5708 -254.631 70.3971 -42.1992 89.0888 -173.6 -25.6422 95.1384 -7.33304 1.0204 3.61778 52.5693 -1.51546 0.025643 14.9037 -1.87971 3.57187 -165.575 63.2526 92.2747 -62.4126 -12.9029 -4.98162 84.5436 -12.8388 -4.04095 12.2948 -1.82 5.12072 -0.869738 4.66699 -93.9593 17.3592 -3.75684 -7.3426 5.67392 -4.07551 -7.17129 -16.704 -1.38477 -8.12686 3.3087 -1.38478 -8.12686 102.739 25.4868 -66.2211 83.4388 -38.3809 98.097 106.192 35.299 -123.408 74.0193 67.4257 72.7261 -79.664 0.000465135 89.9978 -17.9057 14.73 -77.4441 38.4394 -15.9531 -98.7597 9.79932 -2.21556 -24.1896 32.3217 29.4584 39.4728 -33.9855 19.4491 -28.0156 
-283.749 90.7048 -249.73 70.0195 -43.3662 88.3131 -173.42 -26.5319 93.782 -12.6859 -0.824364 1.33472 53.2579 -0.594075 -0.11344 18.3118 -0.657148 1.6834 -170.656 61.1081 95.2647 -50.2909 -19.2198 -4.13163 82.6472 -11.6367 -3.05835 11.1232 -1.49381 4.54451 -0.880287 4.9692 -93.9884 16.7552 -3.77499 -7.41398 5.06952 -4.09678 -7.24182 -17.3052 -1.38082 -8.20026 2.7074 -1.38082 -8.20026 102.85 22.0879 -72.772 82.701 -29.2932 97.4146 110.789 29.134 -127.196 63.5252 68.8639 85.0229 -84.2043 -1.55279 75.0013 -15.5181 6.73489 -66.1432 46.2458 -14.6307 -95.361 18.4158 -4.81245 -29.4066 36.8107 27.494 33.4919 -40.8553 16.6926 -17.7345 
-277.842 90.6229 -244.984 70.5568 -44.1148 87.6025 -172.278 -24.4246 92.5934 -24.8065 2.28674 -0.694233 52.1103 -1.50407 -0.793169 13.1809 4.16724 -4.06652 -175.798 57.2827 97.7857 -38.3295 -24.8665 -2.35369 77.9609 -9.38756 -4.09736 14.6559 -1.54346 4.55262 -0.960166 5.32481 -93.8039 16.0548 -3.81888 -7.05378 4.37129 -4.12489 -6.87991 -18.0211 -1.52991 -7.8702 1.99159 -1.52991 -7.8702 102.766 16.3141 -77.7275 79.2725 -22.5489 93.1616 108.103 27.2053 -125.254 66.0774 68.8251 82.2686 -88.8161 -11.7865 67.7616 -2.11178 5.65314 -59.3275 45.0694 -14.9278 -93.3496 16.0932 -4.57114 -31.4351 33.4817 25.2711 32.3747 -35.4232 14.441 -14.9382 
-271.995 90.3577 -240.233 72.2316 -44.9456 87.6504 -169.791 -21.2078 92.1785 -40.4612 9.66495 -2.39602 51.8176 -2.50944 0.24691 12.626 6.19266 -6.46501 179.749 52.4764 99.864 -29.5586 -23.4296 -0.121033 76.2143 -7.81521 -1.46574 15.6811 -0.951691 3.36184 -1.04472 5.85111 -93.5275 15.0186 -3.81961 -6.52729 3.33775 -4.1026 -6.35369 -19.0782 -1.68745 -7.36886 0.934411 -1.68745 -7.36886 102.231 7.92196 -81.5567 73.1019 -16.925 85.8505 102.777 26.287 -120.756 78.4372 69.5554 70.432 -88.6663 -14.3062 69.5408 0.434767 9.70813 -60.0783 38.2831 -14.4368 -93.2833 6.48344 -2.02622 -28.5696 28.0646 22.651 31.5712 -25.7255 12.2867 -13.0273 
-266.233 89.9235 -235.437 74.7018 -45.8299 88.4765 -166.039 -17.5127 92.6883 -56.391 19.2342 -3.36044 52.0802 -3.33529 3.03519 18.4406 2.37839 -2.47624 176.344 47.4359 101.395 -25.4397 -15.8225 1.7006 75.2135 -7.18773 0.0440057 15.8537 -0.796035 3.0489 -1.10639 6.5531 -93.142 13.6409 -3.71916 -5.80626 1.96307 -3.9707 -5.63756 -20.4817 -1.80662 -6.65192 -0.469024 -1.80662 -6.65191 101.162 0.680002 -89.8116 65.0045 -11.7309 75.2621 102.724 21.9214 -116.764 75.5943 69.1549 72.9818 -89.1258 -17.7081 70.1526 2.91808 13.5166 -59.1647 33.3387 -14.4284 -92.9873 7.23913 -1.39585 -20.8168 28.7998 21.1082 27.0883 -20.7528 11.4485 -10.5372 
-260.555 89.4104 -230.71 78.0241 -46.1947 89.6464 -161.753 -13.7778 93.4569 -72.9037 22.0047 -2.68611 50.6039 -4.25304 4.85345 15.4079 3.66347 -3.80785 173.37 43.6586 101.244 -27.5159 -6.20498 3.04733 73.0699 -5.98873 3.07288 19.6648 -0.783945 2.77828 -1.23338 7.3298 -92.684 12.1096 -3.71978 -4.94518 0.435163 -3.93358 -4.77705 -22.041 -2.0645 -5.83179 -2.02838 -2.06451 -5.83179 99.425 -10.8968 -89.593 55.7324 -6.16539 63.0864 103.059 18.2608 -112.719 74.8019 72.6709 77.5861 -89.2996 -23.0299 72.1198 6.71472 17.426 -57.8177 33.2078 -15.2679 -92.6209 6.73247 -1.27447 -19.1742 32.387 19.9477 21.2015 -18.7888 11.2208 -7.04687 
-255.15 88.8819 -225.795 80.4662 -46.7417 91.0865 -156.873 -8.69969 95.2597 -89.2905 15.5756 -0.492363 51.383 -3.4298 3.94666 4.90562 11.0208 -10.3032 171.968 38.9719 101.988 -26.483 -16.1252 4.19921 63.1573 -2.55265 -16.639 22.7349 -1.29578 3.78321 -1.29803 7.95858 -92.3402 10.8692 -3.66547 -4.31164 -0.803147 -3.85155 -4.14636 -23.2991 -2.20223 -5.21193 -3.28643 -2.20225 -5.21195 96.7339 -19.7736 -95.3869 46.6138 -0.638445 50.1839 100.947 15.5408 -107.021 94.5964 70.0364 55.3348 -88.8619 -29.598 75.3563 10.1371 22.0129 -56.0333 33.8994 -16.0043 -91.8019 0.855664 -0.52505 -19.6987 33.724 19.0689 17.7332 -15.1931 11.2522 -5.79543 
-250.107 88.3758 -221.049 80.2811 -48.5683 90.4515 -150.683 -0.890577 95.3943 -104.094 5.53292 1.96285 54.0092 -1.66046 2.98764 -6.34329 18.441 -14.2849 171.049 40.7538 102.453 -37.1874 -18.5768 4.56212 64.6 -3.40018 -18.9261 4.93442 -0.779503 3.4239 -1.1393 8.31244 -91.9766 10.1836 -3.1716 -3.6562 -1.48823 -3.32935 -3.5132 -23.9959 -1.92739 -4.43912 -3.98323 -1.92739 -4.43913 93.7881 -28.291 -99.6578 37.934 3.61464 35.7194 41.1138 8.39285 -92.1103 137.576 21.9516 -8.13603 -87.2361 -32.7283 79.338 7.5128 28.129 -52.3328 31.166 -15.096 -89.8761 -0.54002 -0.362822 -22.4224 34.5246 17.4427 11.8579 -11.9696 11.5292 -0.857232 
-244.943 86.9153 -217.067 77.6826 -52.4968 88.0454 -141.965 9.34853 92.1938 -117.034 -0.926691 5.12748 56.3083 -0.991452 3.95583 -12.2407 22.1937 -15.4576 172.487 44.9672 102.447 -52.0453 -12.0242 2.67055 74.1398 -8.06335 -6.168 15.322 0.573744 0.514247 -0.716136 8.37243 -91.8118 10.0795 -2.25193 -3.40516 -1.59364 -2.39952 -3.30287 -24.0981 -1.12536 -3.92377 -4.08543 -1.12534 -3.92376 91.7033 -31.4862 -102.896 34.6758 4.50487 19.3881 -81.997 -11.2202 -95.9725 2.30654 -26.5613 -54.5191 -85.8448 -38.3232 82.9717 1.64536 33.0856 -43.0167 34.0574 -14.7667 -88.1848 -5.05569 0.380559 -25.1639 33.9924 17.6453 12.1092 -9.20882 11.6254 -0.545909 
-240.247 84.1366 -215.269 59.7426 -59.0648 67.8711 -123.937 19.5272 73.3091 -128.374 -4.68096 8.12249 56.8188 -1.55814 4.76541 -15.2705 21.1132 -13.5626 178.003 55.2412 98.0422 -61.2239 -18.6788 -0.129264 79.5554 -12.0977 -10.1137 18.8932 -0.704043 2.66844 0.139439 7.5744 -91.1355 11.7166 -0.256269 -2.23227 0.0436376 -0.354228 -2.21885 -22.4752 0.426214 -2.20614 -2.46258 0.42623 -2.20615 90.7859 -32.3977 -104.364 31.6043 5.694 0.902207 -41.4331 -5.2462 -93.1956 -29.1067 3.58212 -19.3894 -84.2275 -44.2536 86.7052 -5.70573 36.3496 -27.8122 31.8123 -15.7499 -88.9432 -0.996234 -0.310618 -21.8865 32.5253 17.9703 13.6219 -6.60913 11.5053 -0.360362 
-235.085 86.3151 -206.931 82.9045 -56.2175 98.8479 -138.283 33.0872 90.4779 -137.5 9.54635 10.3493 54.0159 -3.79805 8.25403 -17.9133 18.6776 -10.9416 172.888 32.4071 107.237 -55.6431 -13.2096 3.51559 83.5978 -13.2266 -7.32015 21.2078 -0.827923 2.80004 0.0966522 8.91333 -92.2316 9.01098 -0.802798 -4.36305 -2.66691 -0.993856 -4.32362 -25.1436 0.544219 -4.40271 -5.13097 0.544236 -4.40272 90.0132 -35.069 -104.93 28.7239 9.36288 -15.8586 -43.156 -4.98097 -95.4158 -30.3617 1.75967 -17.2517 -84.8653 -40.0497 85.0247 -25.7291 35.2318 -5.31862 36.6008 -16.0104 -89.7435 -8.45759 1.17898 -27.9172 35.1013 15.3576 7.50726 -8.8405 11.0104 4.55909 
-229.586 85.5274 -202.063 82.9429 -57.3546 98.4973 -139.754 42.8932 85.3667 -143.136 15.7583 11.2517 57.3469 -2.87165 8.77896 -18.4136 19.1807 -11.185 173.782 27.8997 104.878 -57.7991 -13.2019 2.85608 92.8358 -16.7992 -3.82465 20.2206 -0.112102 1.29622 0.481979 8.86248 -92.2068 9.12789 -0.0255099 -4.36848 -2.55036 -0.217572 -4.36315 -25.0304 1.28742 -4.17491 -5.01778 1.28742 -4.1749 89.928 -31.5318 -106.338 31.4771 16.2532 -29.0712 -42.106 -6.46373 -98.1771 -31.9074 2.05657 -17.8824 -82.8119 -42.1796 88.7589 -33.4412 34.6992 11.4625 39.4086 -18.771 -91.1283 -7.07563 0.920318 -26.8468 34.1506 14.9681 11.106 -8.42416 9.33168 1.71387 
